<svg xmlns="http://www.w3.org/2000/svg" width="589" height="453" preserveAspectRatio="xMidYMid meet" viewBox="0 0 442 340"><title>hku_logo</title><g fill="#ffffff" class="nc-icon-wrapper"><g transform="matrix(.1 0 0 -.1 0 340)" fill="#ffffff" stroke="none"><path d="M1153 2443 l3 -708 26 -106 c28 -111 62 -206 108 -299 l28 -56 -69 4 c-89 5 -105 -5 -154 -103 -23 -45 -67 -107 -107 -151 -43 -47 -68 -83 -68 -98 0 -78 300 -340 512 -447 318 -160 690 -215 1043 -154 264 46 552 186 782 379 139 116 203 206 187 259 -3 12 -32 56 -64 97 -31 41 -72 104 -90 140 -17 36 -42 73 -53 82 -25 20 -126 25 -159 7 -11 -6 -22 -8 -24 -6 -3 3 10 36 29 73 42 84 81 202 110 326 20 89 21 125 24 781 l4 687 -1036 0 -1036 0 4 -707z m2042 282 l0 -400 -72 -3 -73 -3 0 31 c0 16 5 30 10 30 6 0 10 7 10 15 0 23 28 30 49 11 25 -23 28 -11 26 94 -2 68 -7 94 -26 130 -22 41 -29 46 -73 54 -38 7 -64 4 -126 -13 -99 -27 -123 -26 -187 4 -64 29 -69 45 -10 34 23 -4 76 -8 118 -9 66 0 84 4 132 30 31 17 69 30 84 30 40 0 87 32 106 73 23 47 21 65 -3 35 -15 -20 -31 -26 -77 -31 -32 -3 -66 -8 -75 -12 -15 -6 -18 -2 -18 24 0 25 8 36 40 57 33 22 40 32 40 58 -1 25 -3 28 -10 14 -6 -9 -28 -19 -51 -23 -22 -4 -49 -16 -59 -28 -17 -18 -20 -18 -26 -3 -3 9 -3 32 1 52 8 45 -10 43 -40 -4 -11 -17 -23 -31 -26 -32 -4 0 -13 14 -21 31 l-15 31 -21 -22 c-19 -21 -21 -21 -46 -5 -24 16 -26 16 -26 1 0 -13 -7 -15 -41 -10 -39 7 -41 6 -34 -15 7 -22 6 -22 -30 -6 -47 19 -65 19 -65 0 0 -19 -21 -19 -46 0 -18 14 -18 14 7 15 15 0 56 20 92 45 39 26 78 45 94 45 l28 1 -24 19 c-29 25 -72 25 -114 3 -44 -24 -257 -27 -257 -3 0 24 -19 47 -27 34 -16 -22 -75 -45 -170 -64 -133 -28 -155 -36 -188 -70 -52 -54 -31 -136 41 -166 47 -20 161 -19 272 1 96 18 149 15 72 -3 -44 -11 -43 -11 15 -4 95 10 243 5 330 -12 94 -19 150 -20 194 -5 54 19 63 70 18 99 -34 21 -164 25 -248 6 -169 -36 -481 -86 -544 -86 -102 0 -165 38 -165 100 0 64 46 92 209 124 66 13 130 31 142 40 34 23 42 20 36 -14 -7 -34 -6 -35 46 -16 27 9 54 10 90 5 55 -9 80 -5 143 22 22 10 50 16 62 12 22 -5 21 -6 -7 -22 -16 -9 -48 -29 -72 -46 -36 -25 -52 -30 -100 -29 l-57 1 34 -34 c19 -18 34 -39 34 -45 0 -20 -84 -1 -135 31 -66 41 -146 55 -233 42 -76 -12 -116 -36 -120 -74 -5 -41 26 -51 136 -44 58 3 98 10 102 18 5 6 17 9 29 6 15 -3 25 1 32 15 7 13 16 17 27 13 9 -4 43 -14 75 -22 47 -12 63 -13 88 -3 29 12 29 13 12 33 -14 16 -15 19 -3 15 54 -19 60 -19 60 -3 0 13 5 16 23 10 12 -4 37 -9 55 -12 33 -5 34 -5 22 17 -11 21 -10 22 6 16 40 -15 77 -19 70 -8 -10 17 5 15 25 -4 17 -15 19 -15 30 9 l12 26 24 -30 c31 -37 38 -36 54 4 l13 32 4 -43 c4 -51 26 -66 51 -34 9 11 35 27 58 35 40 14 42 14 32 -4 -5 -10 -22 -25 -38 -34 -24 -12 -30 -22 -33 -57 -3 -24 -9 -52 -13 -63 -7 -17 -3 -15 24 8 28 23 42 27 93 27 59 0 61 -1 44 -19 -10 -10 -38 -22 -64 -26 -26 -4 -60 -15 -77 -25 -50 -31 -142 -42 -241 -30 -47 6 -89 9 -91 6 -12 -11 66 -68 111 -81 66 -20 77 -19 178 10 82 25 88 25 124 10 31 -13 36 -18 24 -26 -13 -8 -10 -13 13 -30 29 -22 35 -45 15 -52 -10 -3 -10 -8 1 -21 12 -15 13 -19 1 -26 -10 -6 -11 -12 -3 -22 9 -10 7 -19 -6 -37 -13 -17 -20 -20 -26 -11 -5 9 -12 3 -21 -19 -10 -24 -19 -31 -40 -31 -23 0 -25 3 -20 25 4 14 4 25 1 25 -3 0 -10 -11 -15 -25 -11 -28 -31 -32 -50 -10 -16 19 -7 31 35 45 31 10 35 16 35 45 0 72 -36 82 -242 65 -179 -15 -215 -10 -273 41 -26 23 -35 39 -35 63 0 17 -4 27 -8 21 -4 -5 -46 -10 -93 -10 -85 0 -87 -1 -215 -64 -125 -62 -132 -64 -222 -69 -90 -4 -93 -5 -87 -26 18 -57 17 -64 -9 -81 -14 -9 -30 -14 -36 -10 -5 3 -10 0 -10 -8 0 -8 -9 -22 -19 -31 -18 -17 -20 -16 -26 5 l-7 22 -18 -23 -18 -24 -20 24 c-19 24 -19 24 -26 3 -10 -31 -33 -36 -40 -8 l-6 24 -28 -27 -27 -27 -3 31 -3 32 -24 -24 c-32 -32 -52 -32 -31 1 21 31 20 35 -5 35 -12 0 -23 -8 -26 -20 -6 -22 -8 -23 -41 -14 -17 5 -21 11 -17 25 6 18 5 18 -29 -2 -28 -16 -39 -18 -56 -9 -25 13 -19 26 23 45 l32 14 -39 -2 c-27 -1 -42 3 -49 15 -19 29 0 32 65 12 84 -25 229 -26 276 -1 28 15 32 15 32 2 0 -8 4 -15 10 -15 14 0 42 59 36 76 -3 8 -1 14 4 14 13 0 28 -32 22 -48 -3 -11 0 -12 17 -2 12 6 24 25 28 41 4 21 8 27 14 17 11 -18 35 15 49 67 34 127 32 125 65 126 l30 1 -30 7 c-37 8 -44 37 -21 86 9 18 15 50 15 72 -1 37 -2 36 -10 -12 -4 -27 -15 -55 -24 -62 -10 -6 -14 -17 -10 -23 11 -18 -24 -63 -45 -57 -15 4 -18 -1 -18 -26 1 -20 -6 -36 -22 -49 -33 -27 -47 -22 -16 7 14 13 26 33 26 45 0 18 -2 19 -20 8 -29 -19 -50 4 -27 30 27 30 22 49 -13 44 l-30 -4 15 48 c8 27 15 50 15 51 0 0 -8 -1 -19 -4 -10 -3 -22 0 -25 6 -4 6 -16 11 -27 11 -10 0 -19 5 -19 12 0 6 -2 9 -5 7 -10 -11 20 -68 42 -80 16 -8 21 -18 18 -30 -3 -10 1 -31 9 -47 8 -16 12 -32 9 -36 -21 -21 -67 15 -58 45 5 15 1 19 -18 19 -30 0 -37 16 -37 83 0 60 10 80 33 71 13 -4 17 -1 17 15 0 25 15 28 25 4 6 -16 9 -14 21 10 16 29 34 28 34 -1 1 -12 5 -10 15 8 l13 25 7 -28 c5 -20 11 -25 20 -17 15 12 25 3 25 -23 0 -16 2 -17 16 -7 13 11 16 10 20 -8 4 -12 12 -18 19 -16 10 4 9 10 -6 25 -10 10 -23 19 -27 19 -5 0 -14 12 -21 27 -10 22 -14 24 -22 12 -7 -11 -10 -10 -15 9 -7 24 -19 29 -29 12 -5 -8 -11 -8 -20 0 -10 8 -17 6 -29 -12 -15 -21 -16 -21 -29 -4 -12 17 -14 16 -24 -7 -9 -19 -17 -24 -32 -20 -20 5 -21 1 -21 -59 0 -52 -4 -68 -20 -83 -18 -16 -20 -28 -16 -96 2 -43 7 -83 11 -89 3 -5 -1 -10 -10 -10 -25 0 -112 93 -120 128 -4 22 0 45 14 78 27 59 27 108 1 134 -29 29 -44 26 -36 -7 l7 -28 -17 25 c-22 31 -34 40 -58 40 -15 0 -16 -2 -6 -15 11 -13 11 -23 0 -55 -12 -37 -14 -38 -35 -24 -17 11 -29 12 -51 4 l-28 -11 24 -12 c49 -24 47 -117 -3 -117 -21 -1 -21 -2 6 -25 17 -15 41 -25 60 -26 30 0 30 -1 10 -11 -33 -16 -36 -37 -8 -44 28 -7 31 -14 14 -31 -9 -9 -5 -14 15 -19 20 -5 25 -11 21 -25 -5 -14 0 -20 20 -25 19 -5 24 -11 20 -25 -5 -16 -1 -19 31 -19 31 0 35 -2 24 -15 -11 -13 -8 -15 17 -15 36 0 42 -5 36 -31 -4 -13 -14 -19 -36 -19 -24 0 -41 11 -77 50 -47 51 -82 64 -108 38 -17 -17 -15 -25 11 -33 19 -6 16 -8 -20 -17 -25 -5 -47 -17 -53 -29 -10 -18 -8 -19 14 -13 19 4 27 1 36 -16 7 -14 8 -25 2 -33 -5 -7 -10 -25 -10 -41 0 -27 2 -28 14 -12 9 13 20 16 43 11 16 -3 39 -2 49 4 22 12 32 -2 32 -40 0 -11 4 -18 9 -15 5 3 7 15 4 26 -3 11 0 20 6 20 6 0 11 -7 11 -16 0 -14 3 -14 16 -3 13 10 17 10 24 -1 7 -11 14 -11 34 -2 21 9 24 9 19 -3 -6 -18 14 -19 51 -5 17 6 26 6 26 0 0 -15 37 -12 54 5 8 8 17 15 20 15 3 0 6 -7 6 -15 0 -20 15 -19 35 2 14 14 18 14 26 2 9 -15 7 -16 82 41 47 36 57 62 38 98 -8 15 -1 17 75 17 45 1 81 -1 78 -4 -2 -3 6 -11 18 -18 l23 -12 -26 -1 c-28 0 -69 -33 -69 -55 0 -11 6 -12 24 -5 31 12 56 -11 36 -35 -7 -9 -9 -26 -5 -45 l7 -30 -421 0 -421 0 0 405 0 405 1013 -2 1012 -3 0 -400z m-1837 287 c2 -12 8 -22 13 -22 5 0 9 -33 9 -72 0 -56 6 -85 24 -124 26 -55 87 -121 120 -130 12 -3 28 -17 37 -32 9 -15 31 -46 49 -70 l33 -43 -49 2 c-27 1 -57 -1 -66 -5 -15 -7 -18 -3 -18 18 0 23 -3 26 -25 20 -21 -5 -25 -3 -25 16 0 19 -4 21 -31 15 -30 -7 -31 -6 -26 17 6 23 4 25 -19 20 -23 -4 -25 -2 -20 16 6 17 2 23 -19 28 -25 6 -25 7 -9 25 16 18 16 19 -14 25 -38 8 -41 21 -7 30 14 3 25 9 25 13 -1 16 -18 31 -31 26 -9 -3 -19 6 -28 26 -12 27 -12 32 0 40 8 5 20 7 27 4 6 -2 12 -1 12 4 0 5 -12 12 -26 15 -22 6 -25 11 -22 35 3 20 0 27 -8 24 -7 -2 -15 0 -19 6 -11 19 26 12 57 -10 l30 -22 -7 22 c-4 14 -1 31 9 47 13 19 14 29 5 45 -9 17 -8 20 3 17 7 -3 14 -14 16 -26z m70 -20 c-1 -10 1 -23 5 -30 5 -7 1 -30 -9 -52 -32 -73 -45 -41 -22 56 7 29 16 50 21 47 4 -2 7 -12 5 -21z m883 -52 c18 -10 18 -11 -1 -30 -12 -12 -33 -20 -53 -20 -18 0 -38 -5 -44 -11 -17 -17 -160 -24 -178 -9 -55 46 52 94 188 84 38 -2 77 -9 88 -14z m-664 -22 c-3 -8 -6 -5 -6 6 -1 11 2 17 5 13 3 -3 4 -12 1 -19z m38 -18 c-3 -5 -12 -10 -18 -10 -7 0 -6 4 3 10 19 12 23 12 15 0z m1183 -30 c47 -21 52 -38 21 -66 -27 -25 -120 -25 -243 -1 -49 9 -127 17 -175 18 l-86 1 135 24 c74 13 151 28 170 33 60 15 132 12 178 -9z m-1270 -88 c-11 -39 8 -76 48 -94 20 -10 25 -17 21 -37 -3 -15 0 -44 5 -67 6 -22 8 -49 4 -60 -7 -18 -8 -18 -18 1 -6 11 -24 35 -40 53 -15 18 -28 44 -28 59 0 21 -2 24 -15 13 -18 -15 -21 1 -6 29 12 22 2 69 -10 49 -7 -10 -9 -10 -9 2 0 9 8 27 17 40 l17 25 -24 -20 -23 -20 8 25 c4 14 15 33 24 44 15 18 15 18 -6 12 -25 -8 -30 3 -12 21 8 8 17 4 34 -15 19 -22 21 -31 13 -60z m-323 18 c3 -5 -1 -10 -9 -10 -8 0 -18 5 -21 10 -3 6 1 10 9 10 8 0 18 -4 21 -10z m363 -85 c17 -20 17 -20 -5 -1 -17 14 -23 29 -21 55 l1 36 4 -35 c3 -19 12 -44 21 -55z m208 29 c-3 -8 -11 -12 -16 -9 -7 4 -8 -3 -4 -21 5 -18 3 -25 -4 -20 -7 4 -9 -4 -5 -28 3 -19 1 -36 -6 -40 -6 -4 -11 -1 -11 8 0 8 -4 18 -10 21 -6 4 -7 -6 -3 -27 l6 -33 -25 17 -26 17 5 -39 c3 -22 2 -40 -3 -39 -5 0 -24 18 -43 40 -33 38 -33 40 -15 55 10 8 33 22 51 29 34 16 63 50 63 75 0 20 44 40 48 22 2 -7 1 -20 -2 -28z m-156 -14 c7 34 7 34 9 -12 1 -47 -12 -71 -23 -42 -3 9 -5 32 -4 52 l1 37 5 -35 5 -35 7 35z m-35 10 c3 -5 1 -10 -4 -10 -6 0 -11 5 -11 10 0 6 2 10 4 10 3 0 8 -4 11 -10z m90 -10 c-3 -5 -12 -10 -18 -10 -7 0 -6 4 3 10 19 12 23 12 15 0z m664 -66 c26 -6 31 -11 31 -35 0 -21 13 -43 42 -75 36 -39 40 -48 30 -65 -7 -10 -12 -25 -12 -33 0 -24 -18 -28 -45 -10 -21 14 -25 14 -25 2 0 -8 -9 -23 -20 -33 -19 -18 -20 -17 -20 2 0 33 -12 34 -31 3 -18 -29 -39 -40 -39 -21 0 5 -7 17 -16 26 -16 15 -18 14 -32 -14 -17 -35 -41 -41 -49 -11 -8 30 -33 25 -33 -6 0 -20 -4 -25 -16 -20 -9 3 -22 6 -30 6 -8 0 -14 10 -14 22 l0 21 -24 -23 c-17 -15 -33 -21 -50 -18 -16 3 -23 1 -20 -7 3 -7 -2 -15 -10 -18 -36 -14 -3 46 39 71 17 11 15 12 -17 6 -30 -5 -39 -3 -44 11 -11 28 16 36 103 30 86 -7 177 6 209 29 17 13 17 15 -9 46 -30 35 -32 48 -16 84 16 33 53 43 118 30z m-143 -47 c-5 -26 -1 -42 18 -70 l24 -35 -26 -11 c-15 -5 -52 -13 -82 -16 -51 -6 -58 -4 -94 24 -21 17 -46 31 -55 31 -19 0 178 99 218 109 2 1 0 -14 -3 -32z m262 -56 c61 -31 92 -33 237 -16 162 19 211 14 228 -22 8 -18 8 -29 0 -41 -11 -17 -27 -19 -73 -8 l-25 7 25 -11 c24 -11 25 -12 5 -26 -25 -18 -40 -13 -39 15 1 26 -22 28 -36 2 -15 -30 -13 -46 5 -31 18 15 35 5 35 -23 0 -17 2 -19 10 -7 5 8 13 11 17 6 4 -4 0 -14 -11 -21 -10 -8 -16 -20 -14 -27 3 -9 9 -6 17 9 9 18 17 21 44 16 17 -3 40 -15 50 -27 l18 -21 -6 23 c-4 13 -2 22 4 22 6 0 10 -13 9 -30 l-2 -30 -428 0 c-279 0 -428 3 -428 10 0 6 4 10 10 10 5 0 12 11 16 25 6 25 7 25 26 8 20 -17 21 -17 48 15 l28 33 11 -32 11 -33 29 28 c25 24 30 26 33 11 3 -16 7 -14 36 10 25 21 36 25 45 16 18 -18 26 -13 52 39 28 56 25 75 -19 104 -14 9 -31 26 -37 38 l-11 23 21 -22 c12 -13 38 -31 59 -42z m-1223 9 c-3 -5 -11 -10 -16 -10 -6 0 -7 5 -4 10 3 6 11 10 16 10 6 0 7 -4 4 -10z m74 -50 c15 -23 15 -23 -14 -16 -39 10 -59 30 -51 51 6 15 9 16 28 3 12 -8 29 -25 37 -38z m671 0 c0 -5 -7 -10 -16 -10 -8 0 -12 5 -9 10 3 6 10 10 16 10 5 0 9 -4 9 -10z m-790 -10 c0 -5 -8 -10 -17 -10 -15 0 -16 2 -3 10 19 12 20 12 20 0z m840 -5 c11 -13 8 -15 -14 -15 -25 0 -33 10 -19 23 10 11 19 8 33 -8z m-520 -4 c0 -5 -16 -11 -36 -13 -32 -4 -34 -3 -18 9 20 15 54 17 54 4z m405 -51 c-3 -5 -11 -10 -16 -10 -6 0 -7 5 -4 10 3 6 11 10 16 10 6 0 7 -4 4 -10z m1155 -15 c0 -8 -4 -15 -9 -15 -13 0 -22 16 -14 24 11 11 23 6 23 -9z m-1868 -27 c-7 -7 -12 -8 -12 -2 0 14 12 26 19 19 2 -3 -1 -11 -7 -17z m866 -68 c-4 -22 -108 -28 -108 -6 0 17 13 27 55 42 24 8 32 7 43 -5 7 -9 11 -22 10 -31z m32 21 c0 -6 -4 -13 -10 -16 -5 -3 -10 1 -10 9 0 9 5 16 10 16 6 0 10 -4 10 -9z m0 -111 l0 -50 -32 20 c-47 28 -113 25 -242 -11 l-110 -31 -60 16 c-58 17 -60 17 -87 -3 -21 -16 -43 -21 -89 -21 l-60 0 0 -510 0 -510 275 0 c268 0 275 -1 275 -20 0 -30 50 -79 95 -94 l40 -14 0 -184 0 -183 -25 3 c-90 11 -277 99 -403 190 -245 176 -406 389 -501 660 -59 170 -68 237 -74 530 l-4 262 501 0 501 0 0 -50z m1027 -212 c-6 -288 -12 -334 -73 -518 -125 -377 -434 -695 -804 -830 -130 -48 -120 -61 -120 155 l0 185 24 0 c40 0 90 41 100 83 l10 37 283 0 283 0 0 510 0 510 -56 0 c-40 0 -67 6 -91 21 -29 18 -39 20 -59 10 -41 -18 -84 -13 -189 24 -125 43 -191 46 -259 10 l-46 -24 0 44 0 45 501 0 501 0 -5 -262z m-700 166 c80 -29 108 -35 156 -32 l57 4 0 -413 0 -412 -31 -17 c-44 -23 -112 -19 -198 11 -91 31 -169 32 -230 5 -24 -11 -47 -20 -52 -20 -5 0 -9 179 -9 415 l0 416 25 25 c64 64 142 69 282 18z m-374 -1 c18 -9 37 -23 44 -32 16 -21 19 -841 3 -841 -6 0 -25 7 -42 16 -50 26 -138 20 -253 -16 -101 -32 -150 -34 -196 -9 -18 9 -19 29 -19 408 0 219 3 412 6 428 l6 29 58 -15 c58 -15 60 -15 162 16 118 35 185 40 231 16z m704 -530 l2 -438 -49 55 -50 55 0 418 0 419 48 -35 47 -35 2 -439z m-1181 71 l-7 -417 -42 -49 -42 -50 -3 428 -2 429 42 37 c24 21 47 38 52 38 5 0 6 -168 2 -416z m1234 -85 l0 -489 -285 0 -285 0 0 -29 c0 -17 -10 -42 -24 -58 -22 -26 -30 -28 -96 -28 -68 0 -73 2 -101 33 -16 18 -29 43 -29 57 l0 25 -275 0 -275 0 0 490 0 490 35 0 c41 0 45 -11 10 -34 l-25 -16 0 -455 0 -455 285 0 285 0 -6 -24 c-8 -32 10 -62 46 -81 71 -37 140 1 140 76 l0 39 280 0 280 0 0 465 c0 405 -2 466 -15 471 -27 11 -16 20 20 16 l35 -4 0 -489z m-396 -336 c79 -26 151 -30 200 -9 l34 14 43 -50 c33 -40 39 -52 28 -59 -8 -5 -126 -9 -264 -8 l-250 0 -32 44 c-18 24 -33 47 -33 50 0 9 69 37 110 45 43 9 76 3 164 -27z m-390 13 c80 -24 83 -33 34 -83 l-42 -43 -259 0 -258 0 41 48 41 49 50 -13 c56 -15 92 -10 224 30 95 29 107 30 169 12z m1117 -66 c10 -6 34 -41 53 -78 19 -37 61 -103 95 -147 39 -51 61 -88 61 -106 0 -74 -227 -278 -455 -408 -323 -184 -743 -251 -1106 -176 -188 39 -407 132 -572 242 -103 68 -307 256 -333 305 -14 27 -13 29 34 81 59 65 100 124 135 194 32 62 59 83 110 83 40 0 104 -28 127 -55 10 -12 4 -11 -22 5 -20 11 -59 23 -87 27 -45 5 -55 3 -76 -17 -32 -30 -34 -96 -4 -157 28 -58 138 -167 234 -231 344 -229 728 -296 1130 -196 255 64 600 293 675 449 30 62 32 125 5 155 -17 19 -28 21 -71 18 -28 -2 -70 -14 -92 -25 -57 -28 -42 -9 16 22 50 26 110 32 143 15z m-989 -32 c14 -12 38 -68 38 -89 0 -18 -41 -49 -63 -49 -13 0 -34 11 -46 24 -19 20 -21 30 -15 62 8 48 20 64 48 64 12 0 29 -6 38 -12z m966 -14 c16 -11 22 -25 22 -50 0 -34 -24 -94 -37 -94 -4 0 -18 14 -32 31 -35 41 -50 33 -107 -53 -49 -73 -76 -92 -108 -76 -15 8 -17 18 -13 53 8 75 93 160 189 190 56 18 60 18 86 -1z m-1916 -14 c59 -17 132 -81 163 -144 32 -66 29 -109 -8 -104 -16 2 -30 22 -55 73 -18 39 -40 80 -48 93 l-15 23 -39 -50 c-21 -27 -44 -52 -50 -56 -13 -8 -49 70 -50 108 0 28 30 67 53 67 6 0 29 -5 49 -10z m1878 -165 c0 -13 -130 -139 -161 -156 -13 -7 -28 2 -68 39 -43 40 -51 53 -50 83 l1 34 15 -43 c11 -31 22 -44 40 -48 38 -10 75 7 100 46 12 19 34 53 49 74 l27 40 23 -28 c13 -15 24 -33 24 -41z m-1795 -30 c34 -75 55 -93 95 -80 23 7 34 42 28 87 -5 28 -4 29 9 13 24 -34 15 -64 -36 -118 -47 -50 -49 -50 -73 -35 -41 27 -138 119 -138 132 0 19 61 87 72 80 5 -3 24 -39 43 -79z m1552 -111 l47 -41 -54 -35 c-339 -217 -748 -272 -1118 -152 -76 25 -299 130 -336 159 -18 14 -17 17 27 64 26 28 47 59 47 71 0 11 3 20 6 20 3 0 34 -26 69 -58 143 -131 390 -267 548 -302 48 -11 59 -10 132 15 183 60 370 171 515 303 l55 50 7 -27 c4 -14 29 -45 55 -67z"></path><path d="M1740 2898 c0 -36 1 -38 33 -38 25 0 39 7 54 28 l20 27 -45 -4 c-30 -2 -47 1 -53 10 -6 9 -9 1 -9 -23z m33 -19 c-8 -8 -13 -7 -18 2 -5 8 -4 10 3 5 7 -4 12 -2 12 5 0 7 3 9 7 6 4 -4 2 -12 -4 -18z m47 17 c0 -3 -4 -8 -10 -11 -5 -3 -10 -1 -10 4 0 6 5 11 10 11 6 0 10 -2 10 -4z"></path><path d="M2248 2783 c6 -2 18 -2 25 0 6 3 1 5 -13 5 -14 0 -19 -2 -12 -5z"></path><path d="M2183 2773 c9 -2 23 -2 30 0 6 3 -1 5 -18 5 -16 0 -22 -2 -12 -5z"></path><path d="M1983 2763 c31 -2 83 -2 115 0 31 2 5 3 -58 3 -63 0 -89 -1 -57 -3z"></path><path d="M3005 2643 c11 -3 23 -10 27 -17 5 -7 8 -5 8 7 0 12 -7 17 -27 16 -22 -1 -23 -2 -8 -6z"></path><path d="M2508 2033 c-27 -2 -48 -7 -48 -11 0 -4 7 -27 15 -50 10 -27 13 -57 9 -78 -8 -41 -64 -94 -100 -94 -34 0 -26 -24 10 -28 35 -4 72 20 98 64 17 29 25 34 59 34 37 0 39 -1 39 -33 0 -18 6 -41 13 -50 10 -14 12 7 12 118 l0 135 -30 -2 c-16 -1 -51 -3 -77 -5z m82 -42 c0 -14 -9 -20 -37 -23 -37 -5 -53 4 -53 30 0 8 16 12 45 12 37 0 45 -3 45 -19z m-5 -67 c0 -15 -8 -20 -37 -22 -38 -3 -45 2 -30 24 7 12 40 23 57 19 6 -1 10 -10 10 -21z"></path><path d="M2345 2008 c-38 -5 -72 -12 -74 -14 -2 -2 4 -13 14 -24 15 -17 17 -31 12 -90 -5 -63 2 -87 18 -60 3 6 28 10 56 10 l49 0 0 58 c0 31 3 74 6 95 4 20 3 36 -2 36 -5 -1 -40 -6 -79 -11z m55 -32 c0 -8 -15 -16 -37 -19 -42 -7 -48 -4 -40 18 8 20 77 21 77 1z m0 -56 c0 -17 -7 -20 -40 -20 -42 0 -58 24 -22 33 42 11 62 7 62 -13z m0 -55 c0 -11 -11 -15 -40 -15 -38 0 -49 8 -33 23 3 4 21 7 40 7 23 0 33 -5 33 -15z"></path><path d="M2515 1708 c-6 -9 -25 -18 -44 -20 -19 -2 -36 -9 -39 -16 -3 -10 5 -12 33 -6 53 10 43 -17 -10 -28 -21 -5 -40 -10 -42 -12 -2 -1 2 -17 8 -34 10 -28 15 -32 49 -32 20 0 58 3 83 6 41 6 47 10 53 37 7 34 -6 47 -48 47 -16 0 -28 5 -28 10 0 6 18 10 39 10 22 0 43 5 46 10 4 6 -11 10 -39 10 -34 0 -45 4 -48 18 -3 16 -4 16 -13 0z m20 -103 c0 -11 -8 -21 -17 -23 -14 -3 -18 3 -18 23 0 20 4 26 18 23 9 -2 17 -12 17 -23z m45 5 c0 -11 -7 -20 -15 -20 -8 0 -15 9 -15 20 0 11 7 20 15 20 8 0 15 -9 15 -20z m-100 -11 c0 -25 -33 -22 -38 4 -2 12 3 17 17 17 15 0 21 -6 21 -21z"></path><path d="M2300 1659 c0 -13 30 -18 55 -9 36 14 31 20 -15 18 -22 -1 -40 -5 -40 -9z"></path><path d="M2308 1603 c-26 -3 -38 -9 -38 -20 0 -11 6 -14 23 -8 76 23 84 16 40 -35 -21 -25 -32 -31 -55 -28 -22 4 -28 1 -26 -11 5 -23 56 -26 80 -4 21 19 58 84 58 103 0 10 -10 10 -82 3z"></path><path d="M2580 1551 c0 -10 30 -24 37 -17 3 3 2 9 -2 15 -8 13 -35 15 -35 2z"></path><path d="M2510 1540 c0 -5 9 -10 20 -10 11 0 20 5 20 10 0 6 -9 10 -20 10 -11 0 -20 -4 -20 -10z"></path><path d="M2398 1515 c-17 -15 -24 -26 -17 -31 6 -3 21 4 34 16 l23 22 66 -31 c67 -33 103 -34 127 -5 17 21 7 25 -27 13 -25 -10 -39 -7 -95 15 -36 14 -70 26 -75 26 -5 0 -21 -11 -36 -25z"></path><path d="M1830 1990 c0 -27 -3 -30 -30 -30 -19 0 -33 -7 -40 -20 -6 -11 -9 -20 -8 -20 2 0 18 4 35 9 18 5 35 6 38 1 9 -15 -35 -58 -77 -75 -37 -15 -40 -18 -23 -25 26 -9 44 -3 79 29 l28 26 -4 -47 c-3 -43 5 -64 14 -37 2 7 12 7 32 -1 25 -9 34 -7 67 14 l37 25 11 -30 c9 -27 14 -30 48 -27 34 3 38 6 45 38 10 49 4 60 -38 60 -31 0 -35 2 -24 15 7 8 29 15 50 15 23 0 40 5 43 14 4 11 -3 13 -36 8 l-41 -5 22 38 c13 20 21 40 18 42 -3 3 -26 6 -53 6 -40 2 -52 -2 -70 -23 -33 -37 -28 -44 16 -19 22 12 47 19 56 16 14 -6 14 -9 -1 -32 -13 -20 -24 -25 -60 -25 -29 0 -44 -4 -44 -13 0 -9 11 -12 35 -9 45 5 44 -7 -5 -52 -30 -27 -48 -36 -70 -34 -27 2 -30 6 -30 35 0 31 2 33 21 23 31 -17 35 -4 5 15 -31 20 -34 45 -7 45 11 0 23 5 26 10 4 6 -5 10 -19 10 -22 0 -26 4 -26 30 0 17 -4 30 -10 30 -5 0 -10 -13 -10 -30z m226 -145 c6 -16 -12 -45 -28 -45 -10 0 -28 42 -21 53 8 13 43 7 49 -8z"></path><path d="M1930 1659 c0 -12 -9 -37 -21 -55 -21 -34 -13 -48 11 -19 13 16 40 20 40 6 0 -17 -46 -76 -68 -86 -25 -11 -29 -25 -8 -25 23 0 66 40 86 81 11 21 27 39 35 39 8 0 15 -3 15 -7 0 -14 -41 -77 -68 -105 -14 -16 -21 -28 -15 -28 24 0 71 52 92 100 12 28 28 50 36 50 20 0 19 -16 -6 -67 -14 -30 -27 -43 -41 -43 -17 0 -18 -3 -8 -15 9 -11 17 -12 32 -4 22 12 68 107 68 140 0 21 -9 21 -127 3 -31 -5 -33 -3 -33 26 0 16 -4 30 -10 30 -5 0 -10 -10 -10 -21z"></path><path d="M1830 1651 c0 -25 -18 -37 -33 -22 -15 15 -27 14 -27 -4 0 -9 -7 -27 -16 -41 -22 -33 -10 -43 19 -16 29 27 57 29 57 3 0 -11 -16 -27 -45 -42 -25 -13 -45 -27 -45 -31 0 -13 35 -9 56 7 28 21 35 18 28 -10 -3 -14 -2 -25 4 -25 5 0 13 17 17 38 4 20 14 45 22 55 10 10 12 17 5 17 -21 0 -13 17 11 25 l22 8 -22 4 c-16 3 -23 11 -23 29 0 15 -6 24 -15 24 -8 0 -15 -9 -15 -19z"></path><path d="M3220 1014 c0 -7 -9 -14 -20 -17 -21 -5 -36 -47 -26 -73 5 -13 16 -14 59 -9 43 6 56 4 67 -10 18 -22 1 -50 -29 -49 -22 1 -25 -5 -15 -30 5 -14 10 -13 35 5 22 15 29 28 29 54 0 52 -23 69 -87 61 -32 -4 -53 -2 -53 4 0 13 38 32 50 25 6 -3 10 0 10 7 0 16 -20 47 -20 32z"></path><path d="M1113 992 c-8 -5 -13 -29 -12 -66 1 -31 -3 -62 -9 -68 -19 -19 -42 -1 -42 32 0 28 -2 30 -20 20 l-21 -11 21 -30 c15 -20 30 -29 49 -29 40 0 51 17 51 83 0 50 2 58 18 55 9 -2 21 -13 27 -26 10 -23 20 -28 29 -13 8 13 -40 61 -61 61 -10 0 -24 -4 -30 -8z"></path><path d="M3113 909 c-9 -9 -1 -25 33 -64 24 -29 44 -59 44 -68 0 -17 -26 -47 -40 -47 -7 0 -62 68 -97 119 -1 2 -9 -2 -17 -8 -12 -10 -10 -16 11 -39 14 -15 37 -42 51 -60 32 -42 70 -41 92 3 9 18 23 30 34 30 11 0 21 6 24 14 3 8 0 11 -5 8 -13 -8 -23 1 -68 58 -21 28 -42 53 -45 58 -3 4 -11 2 -17 -4z"></path><path d="M1178 861 c-42 -27 -79 -47 -82 -44 -3 4 -6 2 -6 -3 0 -27 22 -31 47 -8 21 19 28 21 44 11 23 -14 23 -23 5 -59 -11 -21 -12 -29 -2 -37 10 -8 22 11 50 81 22 53 34 94 28 100 -5 5 -40 -12 -84 -41z m45 -19 c-6 -24 -18 -28 -29 -10 -4 6 1 17 11 24 23 17 26 14 18 -14z"></path><path d="M1312 842 c4 -12 -83 -132 -95 -132 -5 0 -4 -7 3 -15 13 -16 35 -21 26 -6 -3 4 3 16 13 25 15 14 23 15 44 5 59 -27 116 25 83 75 -16 25 -79 65 -74 48z m58 -72 c0 -33 -45 -52 -77 -32 -9 6 -6 18 14 45 25 35 27 36 45 21 10 -10 18 -25 18 -34z"></path><path d="M2948 776 c-32 -22 -44 -36 -39 -45 6 -10 10 -9 15 4 11 29 37 11 76 -52 26 -44 40 -59 48 -51 8 8 -1 29 -29 74 -41 65 -43 84 -8 84 11 0 17 5 14 10 -10 16 -27 11 -77 -24z"></path><path d="M1422 767 c4 -17 -70 -137 -84 -137 -7 0 -6 -6 2 -15 15 -18 30 -19 30 -2 0 7 19 43 43 79 41 62 42 66 25 77 -15 9 -18 9 -16 -2z"></path><path d="M1474 732 c9 -15 -64 -142 -82 -142 -9 -1 8 -14 38 -29 54 -29 70 -30 70 -9 0 6 -3 9 -6 5 -4 -3 -19 0 -35 9 -26 13 -27 17 -17 39 13 29 21 31 41 10 13 -12 16 -12 21 0 3 8 -3 16 -15 20 -23 8 -24 23 -4 52 13 19 19 21 40 11 13 -6 26 -18 27 -27 3 -14 4 -14 10 1 6 13 -3 24 -36 43 -44 26 -61 31 -52 17z"></path><path d="M2795 695 c-22 -13 -33 -25 -24 -25 9 0 29 -29 49 -72 19 -40 35 -74 36 -76 1 -1 8 0 17 4 14 5 14 9 -3 37 -33 53 11 78 64 36 16 -12 33 -18 43 -14 15 5 13 10 -12 30 -17 13 -38 27 -47 30 -10 4 -18 16 -18 29 0 50 -43 59 -105 21z m83 -23 c2 -13 -4 -33 -14 -43 -18 -20 -18 -19 -37 17 -15 30 -16 38 -5 45 23 16 53 6 56 -19z"></path><path d="M1580 663 c0 -9 -16 -44 -35 -79 -29 -52 -32 -63 -19 -68 21 -8 25 -8 22 2 -5 13 34 92 42 87 5 -3 11 -32 15 -64 5 -40 12 -62 22 -66 19 -7 15 -14 47 73 15 39 32 72 37 72 16 0 1 17 -18 22 -14 4 -18 -2 -19 -21 -1 -14 -10 -44 -20 -66 l-17 -40 -11 70 c-7 39 -15 76 -19 83 -11 17 -27 15 -27 -5z"></path><path d="M2702 652 c-32 -17 -33 -20 -37 -92 -3 -40 -7 -75 -9 -77 -5 -6 -69 99 -69 115 0 14 -13 14 -42 2 -11 -5 -15 -9 -8 -9 7 -1 34 -35 60 -76 31 -48 52 -72 60 -67 7 4 15 39 18 77 13 141 26 150 69 42 35 -87 30 -79 48 -72 12 5 9 17 -15 68 -16 34 -30 72 -31 84 -1 27 -2 27 -44 5z"></path><path d="M1730 610 c0 -5 9 -10 20 -10 25 0 25 2 0 -81 -12 -38 -26 -69 -33 -70 -7 0 -3 -4 8 -9 28 -12 33 -12 31 3 0 6 7 42 18 80 18 68 36 83 55 50 9 -16 10 -16 11 3 0 17 -9 24 -44 33 -55 14 -66 14 -66 1z"></path><path d="M1864 582 c8 -13 -11 -126 -26 -154 -7 -14 -5 -18 9 -18 15 0 21 14 31 77 6 42 18 80 24 85 9 5 10 8 1 8 -6 0 -19 3 -29 7 -12 4 -15 3 -10 -5z"></path><path d="M2373 568 c-35 -6 -53 -14 -53 -24 0 -12 4 -12 20 -2 29 19 38 2 42 -79 2 -57 6 -73 18 -73 14 0 14 10 6 69 -11 84 -5 105 30 98 15 -3 23 0 21 7 -5 15 -22 16 -84 4z"></path><path d="M1941 498 c-22 -40 -44 -78 -50 -85 -7 -8 -5 -13 6 -17 9 -4 18 -4 21 -1 3 3 2 5 -2 5 -4 0 1 13 10 30 15 24 23 28 43 23 34 -8 34 -8 35 -43 1 -24 5 -30 24 -30 18 0 20 3 13 18 -6 9 -17 52 -26 95 -9 42 -20 77 -25 77 -5 0 -27 -33 -49 -72z m49 -3 c0 -18 -5 -25 -20 -25 -17 0 -18 3 -8 25 6 14 15 25 20 25 4 0 8 -11 8 -25z"></path><path d="M2189 474 c2 -65 0 -89 -10 -95 -9 -6 10 -8 51 -7 61 3 65 4 68 28 2 22 1 23 -8 8 -7 -12 -23 -18 -45 -18 -33 0 -35 2 -35 35 0 31 3 35 25 35 14 0 25 6 25 14 0 9 -8 12 -25 8 -22 -4 -25 -1 -25 28 0 31 1 32 40 28 25 -2 39 0 37 7 -2 5 -26 11 -53 13 l-49 3 4 -87z"></path><path d="M2500 501 c0 -6 5 -13 10 -16 6 -3 10 1 10 9 0 9 -4 16 -10 16 -5 0 -10 -4 -10 -9z"></path><path d="M2090 465 c0 -8 5 -15 10 -15 6 0 10 7 10 15 0 8 -4 15 -10 15 -5 0 -10 -7 -10 -15z"></path></g></g></svg>