<?xml version="1.0"?>
<svg width="442" height="340" xmlns="http://www.w3.org/2000/svg" xmlns:svg="http://www.w3.org/2000/svg" preserveAspectRatio="xMidYMid meet" version="1.0">
 <g class="layer">
  <title>Layer 1</title>
  <g fill="#000000" id="svg_1" transform="matrix(0.1 0 0 -0.1 0 0)">
   <path d="m1153,-967l3,-708l26,-106c28,-111 62,-206 108,-299l28,-56l-69,4c-89,5 -105,-5 -154,-103c-23,-45 -67,-107 -107,-151c-43,-47 -68,-83 -68,-98c0,-78 300,-340 512,-447c318,-160 690,-215 1043,-154c264,46 552,186 782,379c139,116 203,206 187,259c-3,12 -32,56 -64,97c-31,41 -72,104 -90,140c-17,36 -42,73 -53,82c-25,20 -126,25 -159,7c-11,-6 -22,-8 -24,-6c-3,3 10,36 29,73c42,84 81,202 110,326c20,89 21,125 24,781l4,687l-1036,0l-1036,0l4,-707zm2042,282l0,-400l-72,-3l-73,-3l0,31c0,16 5,30 10,30c6,0 10,7 10,15c0,23 28,30 49,11c25,-23 28,-11 26,94c-2,68 -7,94 -26,130c-22,41 -29,46 -73,54c-38,7 -64,4 -126,-13c-99,-27 -123,-26 -187,4c-64,29 -69,45 -10,34c23,-4 76,-8 118,-9c66,0 84,4 132,30c31,17 69,30 84,30c40,0 87,32 106,73c23,47 21,65 -3,35c-15,-20 -31,-26 -77,-31c-32,-3 -66,-8 -75,-12c-15,-6 -18,-2 -18,24c0,25 8,36 40,57c33,22 40,32 40,58c-1,25 -3,28 -10,14c-6,-9 -28,-19 -51,-23c-22,-4 -49,-16 -59,-28c-17,-18 -20,-18 -26,-3c-3,9 -3,32 1,52c8,45 -10,43 -40,-4c-11,-17 -23,-31 -26,-32c-4,0 -13,14 -21,31l-15,31l-21,-22c-19,-21 -21,-21 -46,-5c-24,16 -26,16 -26,1c0,-13 -7,-15 -41,-10c-39,7 -41,6 -34,-15c7,-22 6,-22 -30,-6c-47,19 -65,19 -65,0c0,-19 -21,-19 -46,0c-18,14 -18,14 7,15c15,0 56,20 92,45c39,26 78,45 94,45l28,1l-24,19c-29,25 -72,25 -114,3c-44,-24 -257,-27 -257,-3c0,24 -19,47 -27,34c-16,-22 -75,-45 -170,-64c-133,-28 -155,-36 -188,-70c-52,-54 -31,-136 41,-166c47,-20 161,-19 272,1c96,18 149,15 72,-3c-44,-11 -43,-11 15,-4c95,10 243,5 330,-12c94,-19 150,-20 194,-5c54,19 63,70 18,99c-34,21 -164,25 -248,6c-169,-36 -481,-86 -544,-86c-102,0 -165,38 -165,100c0,64 46,92 209,124c66,13 130,31 142,40c34,23 42,20 36,-14c-7,-34 -6,-35 46,-16c27,9 54,10 90,5c55,-9 80,-5 143,22c22,10 50,16 62,12c22,-5 21,-6 -7,-22c-16,-9 -48,-29 -72,-46c-36,-25 -52,-30 -100,-29l-57,1l34,-34c19,-18 34,-39 34,-45c0,-20 -84,-1 -135,31c-66,41 -146,55 -233,42c-76,-12 -116,-36 -120,-74c-5,-41 26,-51 136,-44c58,3 98,10 102,18c5,6 17,9 29,6c15,-3 25,1 32,15c7,13 16,17 27,13c9,-4 43,-14 75,-22c47,-12 63,-13 88,-3c29,12 29,13 12,33c-14,16 -15,19 -3,15c54,-19 60,-19 60,-3c0,13 5,16 23,10c12,-4 37,-9 55,-12c33,-5 34,-5 22,17c-11,21 -10,22 6,16c40,-15 77,-19 70,-8c-10,17 5,15 25,-4c17,-15 19,-15 30,9l12,26l24,-30c31,-37 38,-36 54,4l13,32l4,-43c4,-51 26,-66 51,-34c9,11 35,27 58,35c40,14 42,14 32,-4c-5,-10 -22,-25 -38,-34c-24,-12 -30,-22 -33,-57c-3,-24 -9,-52 -13,-63c-7,-17 -3,-15 24,8c28,23 42,27 93,27c59,0 61,-1 44,-19c-10,-10 -38,-22 -64,-26c-26,-4 -60,-15 -77,-25c-50,-31 -142,-42 -241,-30c-47,6 -89,9 -91,6c-12,-11 66,-68 111,-81c66,-20 77,-19 178,10c82,25 88,25 124,10c31,-13 36,-18 24,-26c-13,-8 -10,-13 13,-30c29,-22 35,-45 15,-52c-10,-3 -10,-8 1,-21c12,-15 13,-19 1,-26c-10,-6 -11,-12 -3,-22c9,-10 7,-19 -6,-37c-13,-17 -20,-20 -26,-11c-5,9 -12,3 -21,-19c-10,-24 -19,-31 -40,-31c-23,0 -25,3 -20,25c4,14 4,25 1,25c-3,0 -10,-11 -15,-25c-11,-28 -31,-32 -50,-10c-16,19 -7,31 35,45c31,10 35,16 35,45c0,72 -36,82 -242,65c-179,-15 -215,-10 -273,41c-26,23 -35,39 -35,63c0,17 -4,27 -8,21c-4,-5 -46,-10 -93,-10c-85,0 -87,-1 -215,-64c-125,-62 -132,-64 -222,-69c-90,-4 -93,-5 -87,-26c18,-57 17,-64 -9,-81c-14,-9 -30,-14 -36,-10c-5,3 -10,0 -10,-8c0,-8 -9,-22 -19,-31c-18,-17 -20,-16 -26,5l-7,22l-18,-23l-18,-24l-20,24c-19,24 -19,24 -26,3c-10,-31 -33,-36 -40,-8l-6,24l-28,-27l-27,-27l-3,31l-3,32l-24,-24c-32,-32 -52,-32 -31,1c21,31 20,35 -5,35c-12,0 -23,-8 -26,-20c-6,-22 -8,-23 -41,-14c-17,5 -21,11 -17,25c6,18 5,18 -29,-2c-28,-16 -39,-18 -56,-9c-25,13 -19,26 23,45l32,14l-39,-2c-27,-1 -42,3 -49,15c-19,29 0,32 65,12c84,-25 229,-26 276,-1c28,15 32,15 32,2c0,-8 4,-15 10,-15c14,0 42,59 36,76c-3,8 -1,14 4,14c13,0 28,-32 22,-48c-3,-11 0,-12 17,-2c12,6 24,25 28,41c4,21 8,27 14,17c11,-18 35,15 49,67c34,127 32,125 65,126l30,1l-30,7c-37,8 -44,37 -21,86c9,18 15,50 15,72c-1,37 -2,36 -10,-12c-4,-27 -15,-55 -24,-62c-10,-6 -14,-17 -10,-23c11,-18 -24,-63 -45,-57c-15,4 -18,-1 -18,-26c1,-20 -6,-36 -22,-49c-33,-27 -47,-22 -16,7c14,13 26,33 26,45c0,18 -2,19 -20,8c-29,-19 -50,4 -27,30c27,30 22,49 -13,44l-30,-4l15,48c8,27 15,50 15,51c0,0 -8,-1 -19,-4c-10,-3 -22,0 -25,6c-4,6 -16,11 -27,11c-10,0 -19,5 -19,12c0,6 -2,9 -5,7c-10,-11 20,-68 42,-80c16,-8 21,-18 18,-30c-3,-10 1,-31 9,-47c8,-16 12,-32 9,-36c-21,-21 -67,15 -58,45c5,15 1,19 -18,19c-30,0 -37,16 -37,83c0,60 10,80 33,71c13,-4 17,-1 17,15c0,25 15,28 25,4c6,-16 9,-14 21,10c16,29 34,28 34,-1c1,-12 5,-10 15,8l13,25l7,-28c5,-20 11,-25 20,-17c15,12 25,3 25,-23c0,-16 2,-17 16,-7c13,11 16,10 20,-8c4,-12 12,-18 19,-16c10,4 9,10 -6,25c-10,10 -23,19 -27,19c-5,0 -14,12 -21,27c-10,22 -14,24 -22,12c-7,-11 -10,-10 -15,9c-7,24 -19,29 -29,12c-5,-8 -11,-8 -20,0c-10,8 -17,6 -29,-12c-15,-21 -16,-21 -29,-4c-12,17 -14,16 -24,-7c-9,-19 -17,-24 -32,-20c-20,5 -21,1 -21,-59c0,-52 -4,-68 -20,-83c-18,-16 -20,-28 -16,-96c2,-43 7,-83 11,-89c3,-5 -1,-10 -10,-10c-25,0 -112,93 -120,128c-4,22 0,45 14,78c27,59 27,108 1,134c-29,29 -44,26 -36,-7l7,-28l-17,25c-22,31 -34,40 -58,40c-15,0 -16,-2 -6,-15c11,-13 11,-23 0,-55c-12,-37 -14,-38 -35,-24c-17,11 -29,12 -51,4l-28,-11l24,-12c49,-24 47,-117 -3,-117c-21,-1 -21,-2 6,-25c17,-15 41,-25 60,-26c30,0 30,-1 10,-11c-33,-16 -36,-37 -8,-44c28,-7 31,-14 14,-31c-9,-9 -5,-14 15,-19c20,-5 25,-11 21,-25c-5,-14 0,-20 20,-25c19,-5 24,-11 20,-25c-5,-16 -1,-19 31,-19c31,0 35,-2 24,-15c-11,-13 -8,-15 17,-15c36,0 42,-5 36,-31c-4,-13 -14,-19 -36,-19c-24,0 -41,11 -77,50c-47,51 -82,64 -108,38c-17,-17 -15,-25 11,-33c19,-6 16,-8 -20,-17c-25,-5 -47,-17 -53,-29c-10,-18 -8,-19 14,-13c19,4 27,1 36,-16c7,-14 8,-25 2,-33c-5,-7 -10,-25 -10,-41c0,-27 2,-28 14,-12c9,13 20,16 43,11c16,-3 39,-2 49,4c22,12 32,-2 32,-40c0,-11 4,-18 9,-15c5,3 7,15 4,26c-3,11 0,20 6,20c6,0 11,-7 11,-16c0,-14 3,-14 16,-3c13,10 17,10 24,-1c7,-11 14,-11 34,-2c21,9 24,9 19,-3c-6,-18 14,-19 51,-5c17,6 26,6 26,0c0,-15 37,-12 54,5c8,8 17,15 20,15c3,0 6,-7 6,-15c0,-20 15,-19 35,2c14,14 18,14 26,2c9,-15 7,-16 82,41c47,36 57,62 38,98c-8,15 -1,17 75,17c45,1 81,-1 78,-4c-2,-3 6,-11 18,-18l23,-12l-26,-1c-28,0 -69,-33 -69,-55c0,-11 6,-12 24,-5c31,12 56,-11 36,-35c-7,-9 -9,-26 -5,-45l7,-30l-421,0l-421,0l0,405l0,405l1013,-2l1012,-3l0,-400zm-1837,287c2,-12 8,-22 13,-22c5,0 9,-33 9,-72c0,-56 6,-85 24,-124c26,-55 87,-121 120,-130c12,-3 28,-17 37,-32c9,-15 31,-46 49,-70l33,-43l-49,2c-27,1 -57,-1 -66,-5c-15,-7 -18,-3 -18,18c0,23 -3,26 -25,20c-21,-5 -25,-3 -25,16c0,19 -4,21 -31,15c-30,-7 -31,-6 -26,17c6,23 4,25 -19,20c-23,-4 -25,-2 -20,16c6,17 2,23 -19,28c-25,6 -25,7 -9,25c16,18 16,19 -14,25c-38,8 -41,21 -7,30c14,3 25,9 25,13c-1,16 -18,31 -31,26c-9,-3 -19,6 -28,26c-12,27 -12,32 0,40c8,5 20,7 27,4c6,-2 12,-1 12,4c0,5 -12,12 -26,15c-22,6 -25,11 -22,35c3,20 0,27 -8,24c-7,-2 -15,0 -19,6c-11,19 26,12 57,-10l30,-22l-7,22c-4,14 -1,31 9,47c13,19 14,29 5,45c-9,17 -8,20 3,17c7,-3 14,-14 16,-26zm70,-20c-1,-10 1,-23 5,-30c5,-7 1,-30 -9,-52c-32,-73 -45,-41 -22,56c7,29 16,50 21,47c4,-2 7,-12 5,-21zm883,-52c18,-10 18,-11 -1,-30c-12,-12 -33,-20 -53,-20c-18,0 -38,-5 -44,-11c-17,-17 -160,-24 -178,-9c-55,46 52,94 188,84c38,-2 77,-9 88,-14zm-664,-22c-3,-8 -6,-5 -6,6c-1,11 2,17 5,13c3,-3 4,-12 1,-19zm38,-18c-3,-5 -12,-10 -18,-10c-7,0 -6,4 3,10c19,12 23,12 15,0zm1183,-30c47,-21 52,-38 21,-66c-27,-25 -120,-25 -243,-1c-49,9 -127,17 -175,18l-86,1l135,24c74,13 151,28 170,33c60,15 132,12 178,-9zm-1270,-88c-11,-39 8,-76 48,-94c20,-10 25,-17 21,-37c-3,-15 0,-44 5,-67c6,-22 8,-49 4,-60c-7,-18 -8,-18 -18,1c-6,11 -24,35 -40,53c-15,18 -28,44 -28,59c0,21 -2,24 -15,13c-18,-15 -21,1 -6,29c12,22 2,69 -10,49c-7,-10 -9,-10 -9,2c0,9 8,27 17,40l17,25l-24,-20l-23,-20l8,25c4,14 15,33 24,44c15,18 15,18 -6,12c-25,-8 -30,3 -12,21c8,8 17,4 34,-15c19,-22 21,-31 13,-60zm-323,18c3,-5 -1,-10 -9,-10c-8,0 -18,5 -21,10c-3,6 1,10 9,10c8,0 18,-4 21,-10zm363,-85c17,-20 17,-20 -5,-1c-17,14 -23,29 -21,55l1,36l4,-35c3,-19 12,-44 21,-55zm208,29c-3,-8 -11,-12 -16,-9c-7,4 -8,-3 -4,-21c5,-18 3,-25 -4,-20c-7,4 -9,-4 -5,-28c3,-19 1,-36 -6,-40c-6,-4 -11,-1 -11,8c0,8 -4,18 -10,21c-6,4 -7,-6 -3,-27l6,-33l-25,17l-26,17l5,-39c3,-22 2,-40 -3,-39c-5,0 -24,18 -43,40c-33,38 -33,40 -15,55c10,8 33,22 51,29c34,16 63,50 63,75c0,20 44,40 48,22c2,-7 1,-20 -2,-28zm-156,-14c7,34 7,34 9,-12c1,-47 -12,-71 -23,-42c-3,9 -5,32 -4,52l1,37l5,-35l5,-35l7,35zm-35,10c3,-5 1,-10 -4,-10c-6,0 -11,5 -11,10c0,6 2,10 4,10c3,0 8,-4 11,-10zm90,-10c-3,-5 -12,-10 -18,-10c-7,0 -6,4 3,10c19,12 23,12 15,0zm664,-66c26,-6 31,-11 31,-35c0,-21 13,-43 42,-75c36,-39 40,-48 30,-65c-7,-10 -12,-25 -12,-33c0,-24 -18,-28 -45,-10c-21,14 -25,14 -25,2c0,-8 -9,-23 -20,-33c-19,-18 -20,-17 -20,2c0,33 -12,34 -31,3c-18,-29 -39,-40 -39,-21c0,5 -7,17 -16,26c-16,15 -18,14 -32,-14c-17,-35 -41,-41 -49,-11c-8,30 -33,25 -33,-6c0,-20 -4,-25 -16,-20c-9,3 -22,6 -30,6c-8,0 -14,10 -14,22l0,21l-24,-23c-17,-15 -33,-21 -50,-18c-16,3 -23,1 -20,-7c3,-7 -2,-15 -10,-18c-36,-14 -3,46 39,71c17,11 15,12 -17,6c-30,-5 -39,-3 -44,11c-11,28 16,36 103,30c86,-7 177,6 209,29c17,13 17,15 -9,46c-30,35 -32,48 -16,84c16,33 53,43 118,30zm-143,-47c-5,-26 -1,-42 18,-70l24,-35l-26,-11c-15,-5 -52,-13 -82,-16c-51,-6 -58,-4 -94,24c-21,17 -46,31 -55,31c-19,0 178,99 218,109c2,1 0,-14 -3,-32zm262,-56c61,-31 92,-33 237,-16c162,19 211,14 228,-22c8,-18 8,-29 0,-41c-11,-17 -27,-19 -73,-8l-25,7l25,-11c24,-11 25,-12 5,-26c-25,-18 -40,-13 -39,15c1,26 -22,28 -36,2c-15,-30 -13,-46 5,-31c18,15 35,5 35,-23c0,-17 2,-19 10,-7c5,8 13,11 17,6c4,-4 0,-14 -11,-21c-10,-8 -16,-20 -14,-27c3,-9 9,-6 17,9c9,18 17,21 44,16c17,-3 40,-15 50,-27l18,-21l-6,23c-4,13 -2,22 4,22c6,0 10,-13 9,-30l-2,-30l-428,0c-279,0 -428,3 -428,10c0,6 4,10 10,10c5,0 12,11 16,25c6,25 7,25 26,8c20,-17 21,-17 48,15l28,33l11,-32l11,-33l29,28c25,24 30,26 33,11c3,-16 7,-14 36,10c25,21 36,25 45,16c18,-18 26,-13 52,39c28,56 25,75 -19,104c-14,9 -31,26 -37,38l-11,23l21,-22c12,-13 38,-31 59,-42zm-1223,9c-3,-5 -11,-10 -16,-10c-6,0 -7,5 -4,10c3,6 11,10 16,10c6,0 7,-4 4,-10zm74,-50c15,-23 15,-23 -14,-16c-39,10 -59,30 -51,51c6,15 9,16 28,3c12,-8 29,-25 37,-38zm671,0c0,-5 -7,-10 -16,-10c-8,0 -12,5 -9,10c3,6 10,10 16,10c5,0 9,-4 9,-10zm-790,-10c0,-5 -8,-10 -17,-10c-15,0 -16,2 -3,10c19,12 20,12 20,0zm840,-5c11,-13 8,-15 -14,-15c-25,0 -33,10 -19,23c10,11 19,8 33,-8zm-520,-4c0,-5 -16,-11 -36,-13c-32,-4 -34,-3 -18,9c20,15 54,17 54,4zm405,-51c-3,-5 -11,-10 -16,-10c-6,0 -7,5 -4,10c3,6 11,10 16,10c6,0 7,-4 4,-10zm1155,-15c0,-8 -4,-15 -9,-15c-13,0 -22,16 -14,24c11,11 23,6 23,-9zm-1868,-27c-7,-7 -12,-8 -12,-2c0,14 12,26 19,19c2,-3 -1,-11 -7,-17zm866,-68c-4,-22 -108,-28 -108,-6c0,17 13,27 55,42c24,8 32,7 43,-5c7,-9 11,-22 10,-31zm32,21c0,-6 -4,-13 -10,-16c-5,-3 -10,1 -10,9c0,9 5,16 10,16c6,0 10,-4 10,-9zm0,-111l0,-50l-32,20c-47,28 -113,25 -242,-11l-110,-31l-60,16c-58,17 -60,17 -87,-3c-21,-16 -43,-21 -89,-21l-60,0l0,-510l0,-510l275,0c268,0 275,-1 275,-20c0,-30 50,-79 95,-94l40,-14l0,-184l0,-183l-25,3c-90,11 -277,99 -403,190c-245,176 -406,389 -501,660c-59,170 -68,237 -74,530l-4,262l501,0l501,0l0,-50zm1027,-212c-6,-288 -12,-334 -73,-518c-125,-377 -434,-695 -804,-830c-130,-48 -120,-61 -120,155l0,185l24,0c40,0 90,41 100,83l10,37l283,0l283,0l0,510l0,510l-56,0c-40,0 -67,6 -91,21c-29,18 -39,20 -59,10c-41,-18 -84,-13 -189,24c-125,43 -191,46 -259,10l-46,-24l0,44l0,45l501,0l501,0l-5,-262zm-700,166c80,-29 108,-35 156,-32l57,4l0,-413l0,-412l-31,-17c-44,-23 -112,-19 -198,11c-91,31 -169,32 -230,5c-24,-11 -47,-20 -52,-20c-5,0 -9,179 -9,415l0,416l25,25c64,64 142,69 282,18zm-374,-1c18,-9 37,-23 44,-32c16,-21 19,-841 3,-841c-6,0 -25,7 -42,16c-50,26 -138,20 -253,-16c-101,-32 -150,-34 -196,-9c-18,9 -19,29 -19,408c0,219 3,412 6,428l6,29l58,-15c58,-15 60,-15 162,16c118,35 185,40 231,16zm704,-530l2,-438l-49,55l-50,55l0,418l0,419l48,-35l47,-35l2,-439zm-1181,71l-7,-417l-42,-49l-42,-50l-3,428l-2,429l42,37c24,21 47,38 52,38c5,0 6,-168 2,-416zm1234,-85l0,-489l-285,0l-285,0l0,-29c0,-17 -10,-42 -24,-58c-22,-26 -30,-28 -96,-28c-68,0 -73,2 -101,33c-16,18 -29,43 -29,57l0,25l-275,0l-275,0l0,490l0,490l35,0c41,0 45,-11 10,-34l-25,-16l0,-455l0,-455l285,0l285,0l-6,-24c-8,-32 10,-62 46,-81c71,-37 140,1 140,76l0,39l280,0l280,0l0,465c0,405 -2,466 -15,471c-27,11 -16,20 20,16l35,-4l0,-489zm-396,-336c79,-26 151,-30 200,-9l34,14l43,-50c33,-40 39,-52 28,-59c-8,-5 -126,-9 -264,-8l-250,0l-32,44c-18,24 -33,47 -33,50c0,9 69,37 110,45c43,9 76,3 164,-27zm-390,13c80,-24 83,-33 34,-83l-42,-43l-259,0l-258,0l41,48l41,49l50,-13c56,-15 92,-10 224,30c95,29 107,30 169,12zm1117,-66c10,-6 34,-41 53,-78c19,-37 61,-103 95,-147c39,-51 61,-88 61,-106c0,-74 -227,-278 -455,-408c-323,-184 -743,-251 -1106,-176c-188,39 -407,132 -572,242c-103,68 -307,256 -333,305c-14,27 -13,29 34,81c59,65 100,124 135,194c32,62 59,83 110,83c40,0 104,-28 127,-55c10,-12 4,-11 -22,5c-20,11 -59,23 -87,27c-45,5 -55,3 -76,-17c-32,-30 -34,-96 -4,-157c28,-58 138,-167 234,-231c344,-229 728,-296 1130,-196c255,64 600,293 675,449c30,62 32,125 5,155c-17,19 -28,21 -71,18c-28,-2 -70,-14 -92,-25c-57,-28 -42,-9 16,22c50,26 110,32 143,15zm-989,-32c14,-12 38,-68 38,-89c0,-18 -41,-49 -63,-49c-13,0 -34,11 -46,24c-19,20 -21,30 -15,62c8,48 20,64 48,64c12,0 29,-6 38,-12zm966,-14c16,-11 22,-25 22,-50c0,-34 -24,-94 -37,-94c-4,0 -18,14 -32,31c-35,41 -50,33 -107,-53c-49,-73 -76,-92 -108,-76c-15,8 -17,18 -13,53c8,75 93,160 189,190c56,18 60,18 86,-1zm-1916,-14c59,-17 132,-81 163,-144c32,-66 29,-109 -8,-104c-16,2 -30,22 -55,73c-18,39 -40,80 -48,93l-15,23l-39,-50c-21,-27 -44,-52 -50,-56c-13,-8 -49,70 -50,108c0,28 30,67 53,67c6,0 29,-5 49,-10zm1878,-165c0,-13 -130,-139 -161,-156c-13,-7 -28,2 -68,39c-43,40 -51,53 -50,83l1,34l15,-43c11,-31 22,-44 40,-48c38,-10 75,7 100,46c12,19 34,53 49,74l27,40l23,-28c13,-15 24,-33 24,-41zm-1795,-30c34,-75 55,-93 95,-80c23,7 34,42 28,87c-5,28 -4,29 9,13c24,-34 15,-64 -36,-118c-47,-50 -49,-50 -73,-35c-41,27 -138,119 -138,132c0,19 61,87 72,80c5,-3 24,-39 43,-79zm1552,-111l47,-41l-54,-35c-339,-217 -748,-272 -1118,-152c-76,25 -299,130 -336,159c-18,14 -17,17 27,64c26,28 47,59 47,71c0,11 3,20 6,20c3,0 34,-26 69,-58c143,-131 390,-267 548,-302c48,-11 59,-10 132,15c183,60 370,171 515,303l55,50l7,-27c4,-14 29,-45 55,-67z" fill="#ffffff" id="svg_2"/>
   <path d="m1740,-512c0,-36 1,-38 33,-38c25,0 39,7 54,28l20,27l-45,-4c-30,-2 -47,1 -53,10c-6,9 -9,1 -9,-23zm33,-19c-8,-8 -13,-7 -18,2c-5,8 -4,10 3,5c7,-4 12,-2 12,5c0,7 3,9 7,6c4,-4 2,-12 -4,-18zm47,17c0,-3 -4,-8 -10,-11c-5,-3 -10,-1 -10,4c0,6 5,11 10,11c6,0 10,-2 10,-4z" fill="#ffffff" id="svg_3"/>
   <path d="m2248,-627c6,-2 18,-2 25,0c6,3 1,5 -13,5c-14,0 -19,-2 -12,-5z" fill="#ffffff" id="svg_4"/>
   <path d="m2183,-637c9,-2 23,-2 30,0c6,3 -1,5 -18,5c-16,0 -22,-2 -12,-5z" fill="#ffffff" id="svg_5"/>
   <path d="m1983,-647c31,-2 83,-2 115,0c31,2 5,3 -58,3c-63,0 -89,-1 -57,-3z" fill="#ffffff" id="svg_6"/>
   <path d="m3005,-767c11,-3 23,-10 27,-17c5,-7 8,-5 8,7c0,12 -7,17 -27,16c-22,-1 -23,-2 -8,-6z" fill="#ffffff" id="svg_7"/>
   <path d="m2508,-1377c-27,-2 -48,-7 -48,-11c0,-4 7,-27 15,-50c10,-27 13,-57 9,-78c-8,-41 -64,-94 -100,-94c-34,0 -26,-24 10,-28c35,-4 72,20 98,64c17,29 25,34 59,34c37,0 39,-1 39,-33c0,-18 6,-41 13,-50c10,-14 12,7 12,118l0,135l-30,-2c-16,-1 -51,-3 -77,-5zm82,-42c0,-14 -9,-20 -37,-23c-37,-5 -53,4 -53,30c0,8 16,12 45,12c37,0 45,-3 45,-19zm-5,-67c0,-15 -8,-20 -37,-22c-38,-3 -45,2 -30,24c7,12 40,23 57,19c6,-1 10,-10 10,-21z" fill="#ffffff" id="svg_8"/>
   <path d="m2345,-1402c-38,-5 -72,-12 -74,-14c-2,-2 4,-13 14,-24c15,-17 17,-31 12,-90c-5,-63 2,-87 18,-60c3,6 28,10 56,10l49,0l0,58c0,31 3,74 6,95c4,20 3,36 -2,36c-5,-1 -40,-6 -79,-11zm55,-32c0,-8 -15,-16 -37,-19c-42,-7 -48,-4 -40,18c8,20 77,21 77,1zm0,-56c0,-17 -7,-20 -40,-20c-42,0 -58,24 -22,33c42,11 62,7 62,-13zm0,-55c0,-11 -11,-15 -40,-15c-38,0 -49,8 -33,23c3,4 21,7 40,7c23,0 33,-5 33,-15z" fill="#ffffff" id="svg_9"/>
   <path d="m2515,-1702c-6,-9 -25,-18 -44,-20c-19,-2 -36,-9 -39,-16c-3,-10 5,-12 33,-6c53,10 43,-17 -10,-28c-21,-5 -40,-10 -42,-12c-2,-1 2,-17 8,-34c10,-28 15,-32 49,-32c20,0 58,3 83,6c41,6 47,10 53,37c7,34 -6,47 -48,47c-16,0 -28,5 -28,10c0,6 18,10 39,10c22,0 43,5 46,10c4,6 -11,10 -39,10c-34,0 -45,4 -48,18c-3,16 -4,16 -13,0zm20,-103c0,-11 -8,-21 -17,-23c-14,-3 -18,3 -18,23c0,20 4,26 18,23c9,-2 17,-12 17,-23zm45,5c0,-11 -7,-20 -15,-20c-8,0 -15,9 -15,20c0,11 7,20 15,20c8,0 15,-9 15,-20zm-100,-11c0,-25 -33,-22 -38,4c-2,12 3,17 17,17c15,0 21,-6 21,-21z" fill="#ffffff" id="svg_10"/>
   <path d="m2300,-1751c0,-13 30,-18 55,-9c36,14 31,20 -15,18c-22,-1 -40,-5 -40,-9z" fill="#ffffff" id="svg_11"/>
   <path d="m2308,-1807c-26,-3 -38,-9 -38,-20c0,-11 6,-14 23,-8c76,23 84,16 40,-35c-21,-25 -32,-31 -55,-28c-22,4 -28,1 -26,-11c5,-23 56,-26 80,-4c21,19 58,84 58,103c0,10 -10,10 -82,3z" fill="#ffffff" id="svg_12"/>
   <path d="m2580,-1859c0,-10 30,-24 37,-17c3,3 2,9 -2,15c-8,13 -35,15 -35,2z" fill="#ffffff" id="svg_13"/>
   <path d="m2510,-1870c0,-5 9,-10 20,-10c11,0 20,5 20,10c0,6 -9,10 -20,10c-11,0 -20,-4 -20,-10z" fill="#ffffff" id="svg_14"/>
   <path d="m2398,-1895c-17,-15 -24,-26 -17,-31c6,-3 21,4 34,16l23,22l66,-31c67,-33 103,-34 127,-5c17,21 7,25 -27,13c-25,-10 -39,-7 -95,15c-36,14 -70,26 -75,26c-5,0 -21,-11 -36,-25z" fill="#ffffff" id="svg_15"/>
   <path d="m1830,-1420c0,-27 -3,-30 -30,-30c-19,0 -33,-7 -40,-20c-6,-11 -9,-20 -8,-20c2,0 18,4 35,9c18,5 35,6 38,1c9,-15 -35,-58 -77,-75c-37,-15 -40,-18 -23,-25c26,-9 44,-3 79,29l28,26l-4,-47c-3,-43 5,-64 14,-37c2,7 12,7 32,-1c25,-9 34,-7 67,14l37,25l11,-30c9,-27 14,-30 48,-27c34,3 38,6 45,38c10,49 4,60 -38,60c-31,0 -35,2 -24,15c7,8 29,15 50,15c23,0 40,5 43,14c4,11 -3,13 -36,8l-41,-5l22,38c13,20 21,40 18,42c-3,3 -26,6 -53,6c-40,2 -52,-2 -70,-23c-33,-37 -28,-44 16,-19c22,12 47,19 56,16c14,-6 14,-9 -1,-32c-13,-20 -24,-25 -60,-25c-29,0 -44,-4 -44,-13c0,-9 11,-12 35,-9c45,5 44,-7 -5,-52c-30,-27 -48,-36 -70,-34c-27,2 -30,6 -30,35c0,31 2,33 21,23c31,-17 35,-4 5,15c-31,20 -34,45 -7,45c11,0 23,5 26,10c4,6 -5,10 -19,10c-22,0 -26,4 -26,30c0,17 -4,30 -10,30c-5,0 -10,-13 -10,-30zm226,-145c6,-16 -12,-45 -28,-45c-10,0 -28,42 -21,53c8,13 43,7 49,-8z" fill="#ffffff" id="svg_16"/>
   <path d="m1930,-1751c0,-12 -9,-37 -21,-55c-21,-34 -13,-48 11,-19c13,16 40,20 40,6c0,-17 -46,-76 -68,-86c-25,-11 -29,-25 -8,-25c23,0 66,40 86,81c11,21 27,39 35,39c8,0 15,-3 15,-7c0,-14 -41,-77 -68,-105c-14,-16 -21,-28 -15,-28c24,0 71,52 92,100c12,28 28,50 36,50c20,0 19,-16 -6,-67c-14,-30 -27,-43 -41,-43c-17,0 -18,-3 -8,-15c9,-11 17,-12 32,-4c22,12 68,107 68,140c0,21 -9,21 -127,3c-31,-5 -33,-3 -33,26c0,16 -4,30 -10,30c-5,0 -10,-10 -10,-21z" fill="#ffffff" id="svg_17"/>
   <path d="m1830,-1759c0,-25 -18,-37 -33,-22c-15,15 -27,14 -27,-4c0,-9 -7,-27 -16,-41c-22,-33 -10,-43 19,-16c29,27 57,29 57,3c0,-11 -16,-27 -45,-42c-25,-13 -45,-27 -45,-31c0,-13 35,-9 56,7c28,21 35,18 28,-10c-3,-14 -2,-25 4,-25c5,0 13,17 17,38c4,20 14,45 22,55c10,10 12,17 5,17c-21,0 -13,17 11,25l22,8l-22,4c-16,3 -23,11 -23,29c0,15 -6,24 -15,24c-8,0 -15,-9 -15,-19z" fill="#ffffff" id="svg_18"/>
   <path d="m3220,-2396c0,-7 -9,-14 -20,-17c-21,-5 -36,-47 -26,-73c5,-13 16,-14 59,-9c43,6 56,4 67,-10c18,-22 1,-50 -29,-49c-22,1 -25,-5 -15,-30c5,-14 10,-13 35,5c22,15 29,28 29,54c0,52 -23,69 -87,61c-32,-4 -53,-2 -53,4c0,13 38,32 50,25c6,-3 10,0 10,7c0,16 -20,47 -20,32z" fill="#ffffff" id="svg_19"/>
   <path d="m1113,-2418c-8,-5 -13,-29 -12,-66c1,-31 -3,-62 -9,-68c-19,-19 -42,-1 -42,32c0,28 -2,30 -20,20l-21,-11l21,-30c15,-20 30,-29 49,-29c40,0 51,17 51,83c0,50 2,58 18,55c9,-2 21,-13 27,-26c10,-23 20,-28 29,-13c8,13 -40,61 -61,61c-10,0 -24,-4 -30,-8z" fill="#ffffff" id="svg_20"/>
   <path d="m3113,-2501c-9,-9 -1,-25 33,-64c24,-29 44,-59 44,-68c0,-17 -26,-47 -40,-47c-7,0 -62,68 -97,119c-1,2 -9,-2 -17,-8c-12,-10 -10,-16 11,-39c14,-15 37,-42 51,-60c32,-42 70,-41 92,3c9,18 23,30 34,30c11,0 21,6 24,14c3,8 0,11 -5,8c-13,-8 -23,1 -68,58c-21,28 -42,53 -45,58c-3,4 -11,2 -17,-4z" fill="#ffffff" id="svg_21"/>
   <path d="m1178,-2549c-42,-27 -79,-47 -82,-44c-3,4 -6,2 -6,-3c0,-27 22,-31 47,-8c21,19 28,21 44,11c23,-14 23,-23 5,-59c-11,-21 -12,-29 -2,-37c10,-8 22,11 50,81c22,53 34,94 28,100c-5,5 -40,-12 -84,-41zm45,-19c-6,-24 -18,-28 -29,-10c-4,6 1,17 11,24c23,17 26,14 18,-14z" fill="#ffffff" id="svg_22"/>
   <path d="m1312,-2568c4,-12 -83,-132 -95,-132c-5,0 -4,-7 3,-15c13,-16 35,-21 26,-6c-3,4 3,16 13,25c15,14 23,15 44,5c59,-27 116,25 83,75c-16,25 -79,65 -74,48zm58,-72c0,-33 -45,-52 -77,-32c-9,6 -6,18 14,45c25,35 27,36 45,21c10,-10 18,-25 18,-34z" fill="#ffffff" id="svg_23"/>
   <path d="m2948,-2634c-32,-22 -44,-36 -39,-45c6,-10 10,-9 15,4c11,29 37,11 76,-52c26,-44 40,-59 48,-51c8,8 -1,29 -29,74c-41,65 -43,84 -8,84c11,0 17,5 14,10c-10,16 -27,11 -77,-24z" fill="#ffffff" id="svg_24"/>
   <path d="m1422,-2643c4,-17 -70,-137 -84,-137c-7,0 -6,-6 2,-15c15,-18 30,-19 30,-2c0,7 19,43 43,79c41,62 42,66 25,77c-15,9 -18,9 -16,-2z" fill="#ffffff" id="svg_25"/>
   <path d="m1474,-2678c9,-15 -64,-142 -82,-142c-9,-1 8,-14 38,-29c54,-29 70,-30 70,-9c0,6 -3,9 -6,5c-4,-3 -19,0 -35,9c-26,13 -27,17 -17,39c13,29 21,31 41,10c13,-12 16,-12 21,0c3,8 -3,16 -15,20c-23,8 -24,23 -4,52c13,19 19,21 40,11c13,-6 26,-18 27,-27c3,-14 4,-14 10,1c6,13 -3,24 -36,43c-44,26 -61,31 -52,17z" fill="#ffffff" id="svg_26"/>
   <path d="m2795,-2715c-22,-13 -33,-25 -24,-25c9,0 29,-29 49,-72c19,-40 35,-74 36,-76c1,-1 8,0 17,4c14,5 14,9 -3,37c-33,53 11,78 64,36c16,-12 33,-18 43,-14c15,5 13,10 -12,30c-17,13 -38,27 -47,30c-10,4 -18,16 -18,29c0,50 -43,59 -105,21zm83,-23c2,-13 -4,-33 -14,-43c-18,-20 -18,-19 -37,17c-15,30 -16,38 -5,45c23,16 53,6 56,-19z" fill="#ffffff" id="svg_27"/>
   <path d="m1580,-2747c0,-9 -16,-44 -35,-79c-29,-52 -32,-63 -19,-68c21,-8 25,-8 22,2c-5,13 34,92 42,87c5,-3 11,-32 15,-64c5,-40 12,-62 22,-66c19,-7 15,-14 47,73c15,39 32,72 37,72c16,0 1,17 -18,22c-14,4 -18,-2 -19,-21c-1,-14 -10,-44 -20,-66l-17,-40l-11,70c-7,39 -15,76 -19,83c-11,17 -27,15 -27,-5z" fill="#ffffff" id="svg_28"/>
   <path d="m2702,-2758c-32,-17 -33,-20 -37,-92c-3,-40 -7,-75 -9,-77c-5,-6 -69,99 -69,115c0,14 -13,14 -42,2c-11,-5 -15,-9 -8,-9c7,-1 34,-35 60,-76c31,-48 52,-72 60,-67c7,4 15,39 18,77c13,141 26,150 69,42c35,-87 30,-79 48,-72c12,5 9,17 -15,68c-16,34 -30,72 -31,84c-1,27 -2,27 -44,5z" fill="#ffffff" id="svg_29"/>
   <path d="m1730,-2800c0,-5 9,-10 20,-10c25,0 25,2 0,-81c-12,-38 -26,-69 -33,-70c-7,0 -3,-4 8,-9c28,-12 33,-12 31,3c0,6 7,42 18,80c18,68 36,83 55,50c9,-16 10,-16 11,3c0,17 -9,24 -44,33c-55,14 -66,14 -66,1z" fill="#ffffff" id="svg_30"/>
   <path d="m1864,-2828c8,-13 -11,-126 -26,-154c-7,-14 -5,-18 9,-18c15,0 21,14 31,77c6,42 18,80 24,85c9,5 10,8 1,8c-6,0 -19,3 -29,7c-12,4 -15,3 -10,-5z" fill="#ffffff" id="svg_31"/>
   <path d="m2373,-2842c-35,-6 -53,-14 -53,-24c0,-12 4,-12 20,-2c29,19 38,2 42,-79c2,-57 6,-73 18,-73c14,0 14,10 6,69c-11,84 -5,105 30,98c15,-3 23,0 21,7c-5,15 -22,16 -84,4z" fill="#ffffff" id="svg_32"/>
   <path d="m1941,-2912c-22,-40 -44,-78 -50,-85c-7,-8 -5,-13 6,-17c9,-4 18,-4 21,-1c3,3 2,5 -2,5c-4,0 1,13 10,30c15,24 23,28 43,23c34,-8 34,-8 35,-43c1,-24 5,-30 24,-30c18,0 20,3 13,18c-6,9 -17,52 -26,95c-9,42 -20,77 -25,77c-5,0 -27,-33 -49,-72zm49,-3c0,-18 -5,-25 -20,-25c-17,0 -18,3 -8,25c6,14 15,25 20,25c4,0 8,-11 8,-25z" fill="#ffffff" id="svg_33"/>
   <path d="m2189,-2936c2,-65 0,-89 -10,-95c-9,-6 10,-8 51,-7c61,3 65,4 68,28c2,22 1,23 -8,8c-7,-12 -23,-18 -45,-18c-33,0 -35,2 -35,35c0,31 3,35 25,35c14,0 25,6 25,14c0,9 -8,12 -25,8c-22,-4 -25,-1 -25,28c0,31 1,32 40,28c25,-2 39,0 37,7c-2,5 -26,11 -53,13l-49,3l4,-87z" fill="#ffffff" id="svg_34"/>
   <path d="m2500,-2909c0,-6 5,-13 10,-16c6,-3 10,1 10,9c0,9 -4,16 -10,16c-5,0 -10,-4 -10,-9z" fill="#ffffff" id="svg_35"/>
   <path d="m2090,-2945c0,-8 5,-15 10,-15c6,0 10,7 10,15c0,8 -4,15 -10,15c-5,0 -10,-7 -10,-15z" fill="#ffffff" id="svg_36"/>
  </g>
 </g>
</svg>